<?xml version="1.0" encoding="UTF-8"?>
<svg enable-background="new 0 0 3672 4428" version="1.1" viewBox="0 0 3672 4428" xmlns="http://www.w3.org/2000/svg">
 <path d="m3608.5 1765.5c-1.16-3.23-3.6-5.75-5.87-8.19-4.84-4.85-12.05-6.06-18.61-5.73 1.03-6.84 6.5-13.88 2.07-20.62-3.23-3.33-6.48-6.84-10.43-9.34 1.98-10.36-10.14-19.16-19.71-16.31-5.41 0.56-8.72 5.27-12.42 8.67 3.17-6.25 0-15.79-7.34-17.07-4.96-1.49-10.35-0.39-14.66 2.32 0.32-2.56 0.47-5.33-1.38-7.34-2.76-4.5-8.56-5.14-13.31-4.75-8.11 1.52-15.04 6.55-20.84 12.19-4.6 3.74-9.85 7-15.72 8.17-4.39 1.16-8.91 0.04-13.34 0.11-10.36-0.81-20.77 0.02-30.89 2.29-11.69 2.08-23.47 3.65-35.02 6.43-23.23 5.27-46.7 9.78-69.37 17.22-10.03 3.4-20.42 5.44-30.66 8.06-13.2 3.4-26.57 6.07-40 8.37-10.36 1.91-20.92 2.91-31.02 5.99-6.09 1.81-12.58 2.64-17.95 6.24-9.41 5.69-20.19 9.8-27.47 18.39-5.07 5.6-10.39 10.99-15.2 16.81-3.8 6.04-6.92 12.48-10.15 18.83-13.58 2.61-27.42 3.66-41.21 4.39-12.01 0.28-24.03-0.3-36.02 0.43-18.32-0.84-36.65-1.52-54.93-2.96-21.3-2-42.71-2.6-63.98-4.81-25.68-2.52-51.41-4.58-76.97-8.16-13.84-2-27.86-3.05-41.42-6.65-9.67-1.59-19.04-4.72-28.81-5.64-8.95-1.26-17.82-3.22-26.88-3.15-11.33 0.3-22.64-1.3-33.95-0.38-10.73 0.66-21.54 0.43-32.15 2.29-13.38 1.87-26.8 3.27-40.18 5.01-9.96 2.15-19.87 4.48-29.81 6.66-10.96 2.19-21.39 6.27-32.06 9.46-10.74 3.03-20.82 7.87-31.2 11.85-18.1 7.89-35.54 17.28-52.05 28.09-13.67 9.05-27.04 18.58-41.38 26.56-7.07 4.21-14.17 8.64-22.24 10.64-22.47 7.4-45.99 11.07-69.43 13.88-27.09 3.28-54.41 1.56-81.59 1.28-14.69 0.38-29.28-1.7-43.93-2.39-12.69-0.6-25.34-1.85-38.02-2.56-27.06-1.49-54.08-3.7-81.13-5.27-23.11-1.12-46.2-2.85-69.32-3.55-7.5-0.15-15.04-1.38-22.51-0.37-5.65 0.45-11.3 1.21-16.95 0.56-10.56-0.96-20.86 1.81-31.24 3.16-12.28 1.66-24.49 3.75-36.7 5.91-25.52 4.76-51.2 8.67-77.05 11.16-14.92 1.83-30.02 1.71-44.96 0.43-11.35-0.77-22.3-4.03-33.54-5.43-0.91-2.61-2.84-4.58-4.84-6.35-3.31-0.16-6.6 0.16-9.76 1.12-4.81-4.72-12.02-8.24-18.8-6.13-5.95 1.51-12.23 2.63-18.31 1.32-11.18-2.51-21.87-6.77-32.93-9.64-23.7-3.68-46.49-11.45-70.05-15.78-13.1-3.23-25.97-7.29-38.9-11.11-26.19-7.93-51.12-19.33-76.39-29.68-12.05-5.15-24.04-11.09-33.69-20.11-7.27-3.62-14.54-7.38-21.16-12.11-4.3-4.49-8.6-9.2-11.18-14.92-5.05-8.84-8.73-18.48-10.97-28.4-1.49-5.83 0.04-11.87-1.17-17.71-1.26-6.69-0.83-13.53-0.33-20.26 1.26-13.55 3.18-27.06 6.22-40.32 1.65-27.94 5.72-55.68 9.3-83.42 1.32-7.19 2.75-14.38 5.19-21.27 3.9-11.58 6.77-23.47 11.07-34.9 1.62-7.2 3.97-14.19 5.7-21.35 1.46-8.1 4.5-15.76 6.75-23.64 6.13-18.72 8.98-38.5 17.18-56.53 7.13-16.05 18.54-29.65 26.98-44.91 7.9-4 14.48-10.65 23.24-12.82 6.38-2.26 13.24-2.09 19.88-2.96 19.79-1.3 39.64-1.56 59.43-3.01 34.08-2.43 68.22-0.34 102.3 1.02 18.21 1.02 36.45 1.22 54.68 1.7 20.33 0.94 40.66 2.15 61.02 1.85 38.69 0.32 77.29-2.69 115.92-4.38 16-0.68 32.03-1.94 48.05-0.96 15.98 0.17 31.95 1.05 47.93 1.69 17.38-0.23 34.78-0.86 52.08-2.7 16.11-1.21 32.05-3.9 48.04-6.13 12.45-2.43 24.91-4.81 37.35-7.28 11.81-3.1 23.62-6.23 35.42-9.37 7.32-1.7 14.45-4.03 21.47-6.69 22.54-8.14 45.16-16.09 67.52-24.72 36.63-13.79 73.13-27.95 110.2-40.53 24.19-7.74 48.57-14.92 73.32-20.68 8.2-2.2 16.63-3.62 24.64-6.51 5.79-0.74 11.17-3.12 16.25-5.9 4.02 6.41 9.73 11.82 16.78 14.78 9.33 3.82 19.06 6.57 28.25 10.77 10.92 4.79 22.76 7.17 33.33 12.81 8.58 3.87 14.26 12.02 22.77 16.04 1.65 0.95 3.77 1.33 4.98 2.97 3.35 3.98 6.62 8.11 10.81 11.27 4.87 4.96 8.39 11.05 12.5 16.63 1.56 2.31 3.72 4.48 4.07 7.4 0.63 6.04 2.96 11.73 5.23 17.32 1.37 3.28 1.23 6.97 2.56 10.28 2.3 5.94 6.23 11.05 10.15 16.01 2.94 3.46 7.47 4.84 11.88 5.04 1.52 1.7 4.13 2.58 6.26 1.38 3.06-1.62 4.24-5.47 3.73-8.72-1.11-5.5-2.47-10.98-4.78-16.1-2.21-4.92-3.21-10.27-5.52-15.12-0.85-6.29-0.59-12.66 0.02-18.95-0.54-9.31-9.83-14.9-11.42-23.83-1.31-6.45-4.98-12.05-7.48-18.06 3.19-0.2 7.14-2.03 9.68 0.86 6.05 5.27 11.36 11.42 18.14 15.84 2.61 2.04 6.26 2.92 8.11 5.86 4.24 10.4 9.05 20.59 14.7 30.31 1.32 2.57 3.27 4.99 3.65 7.96 0.77 7.97 3.1 15.76 6.39 23.05 2.78 5.42 7.65 10.81 14.31 10.46 0.62 1.74 2.33 2.96 4.19 2.01 4.64-2.6 5.27-8.65 5.14-13.43-0.6-6.67-0.64-13.4-2.23-19.93-1.49-14.98-7.85-28.8-12.82-42.84-3.98-9.43-5.69-20.77-14.51-27.19 3.56 2.15 7.51 3.49 11.54 4.53 2.14 0.46 3.77 2.31 4.5 4.34 3.56 9.49 6.19 19.49 11.81 28.06 2.17 3.37 5.72 6 6.62 10.1 0.9 5.33 1.61 10.74 3.5 15.86 2.09 5.58 3.76 11.63 8.03 16.04 2.92 3.3 7.57 4.49 11.86 3.96 0.7 0.71 1.44 1.44 2.2 2.19 0.65-0.06 1.94-0.16 2.59-0.22 2.72-2.49 3.41-6.35 3.6-9.87 0.32-6.84-2.72-13.23-3.03-20-1.12-7.37-2.51-14.74-4.69-21.86-2.86-7.96-4.22-16.38-7.7-24.12-4.03-9.07-7.31-18.47-11.71-27.37-2.64-5.5-7.81-8.91-12.27-12.77-3.27-2.75-6.44-5.6-9.68-8.35 6.55 0.93 13.28 0.85 19.68 2.75 4.04 1.06 7.95 2.57 11.98 3.75 5.72 1.63 11.09 4.62 17.14 5.01 10.09 1.76 19.69 5.78 29.85 7.31 5.54 0.67 11.42 0.46 16.65-1.74 3.64-1.59 4.96-5.78 8.48-7.52 1.41-1.09 3.53-3.27 1.87-5.03-3.53-4.38-8.68-7.01-13.6-9.5-6.52-3.56-13.65-5.74-20.69-7.98-4.83-1.39-10.06-1.41-14.61-3.68-12-6.99-24.49-13.57-38.01-17.03-8.72-2.71-16.77-7.22-25.64-9.48-11.74-3.75-24.1-5.08-35.79-8.91-5.87-1.68-10.34-6.85-16.7-6.92-9.99-0.43-19.18-4.64-28.87-6.56-12.05-2.89-24.26-4.97-36.35-7.64-23.2-5.66-46.28-11.84-69.54-17.24-13.4-3.39-27.63-4.05-41.14-1.02-2.02 0.32-4.19 1.12-6.07-0.03-5.37-2.42-11.43-0.92-16.8 0.68-6.53 0.55-12.85 2.31-19.23 3.64-26.79 5.83-53.75 10.93-80.99 14.13-48.93 4.97-98.07 7.55-146.99 12.62-31.66 3.65-63.35 7.12-94.79 12.33-30.06 4.42-59.76 11.81-90.21 13.13-6.45 0.4-13.07 0.54-19.16 2.93-6.75 2.19-12.74 6.44-19.79 7.71-6.02 0.74-11.15-3.42-17.01-3.62-5.11 0.43-9.24 3.95-14.2 4.93-5.93 1.32-11.89-0.53-17.7-1.55-13.45-3.02-27.32-2.04-40.96-1.49-5.69-0.18-11.64 1.58-17.09-0.59-6.65-2.82-13.88-3.84-20.99-4.64-5.9 0.19-11.83 0.27-17.68 1.15-6.1 0.94-12.2 2.18-18.39 2.19-14.14-0.5-27.99-3.69-42-5.3-11.28 0.77-22.61 0.31-33.84 1.83-13.62 1.89-27.42 1.6-41.05 0.09-23.48-3.3-46.71-8.12-70.04-12.28-23-3.93-45.96-8.1-68.98-11.88-20.6-3.38-41.18-7.24-62.04-8.47-14.01-1.04-28.01-2.09-42.03-2.93-4.69-0.15-9.47-0.35-14.01 1.01-7.06-2.25-14.53-2.81-21.51-5.34-10.48-2-20.32-6.11-30.44-9.3-7.93-2.67-15.8-5.52-23.81-7.92-14.55-4.55-29.29-8.44-44.16-11.72-9.55-2.04-19.14-4.13-28.26-7.66 0.24-4.32-0.93-8.53-1.07-12.81 0.24-5.75 0.52-11.54 2.01-17.12 0.72-3.79 2.64-7.22 3.34-11.01 0.22-0.57 0.66-1.7 0.88-2.27 0.41-1.37 0.86-2.74 1.4-4.04 0.11-0.2 0.31-0.61 0.42-0.81 3.7-0.19 7.65 0.19 10.89-2.04 7.86-4.5 16.29-8.24 23.55-13.67 2.68-1.12 5.14-2.7 7.75-3.99 5.63-2.58 10.14-6.95 15.47-10.06 2.65 1.84 5.82-0.45 8.7-0.6 6.75-0.68 13.18-3.68 18.14-8.29 5.35-1.97 7.66-7.73 10.55-12.19 1.05-0.57 2.13-1.13 3.22-1.67 1.12 1.63-0.18 3.25-0.81 4.8 0.27 0.37 0.82 1.12 1.09 1.5-0.37 0.86-0.74 1.73-1.06 2.63 1.93-0.68 3.68-1.76 5.22-3.11l-0.06-0.67c1.99-1.72 3.35-4.51 6.07-5.15 0 0.93 0.01 2.77 0.01 3.69 0.93-3.86 3-7.39 3.47-11.35 0.56-0.78 0.96-1.65 1.2-2.61 1.75-5.89 3.83-11.71 6.15-17.4 0.12 3.64 0.18 7.29-0.05 10.93l-0.6 0.52c0.94 4.37 1.96 8.73 2.58 13.18-2.08 4.02-4.77 7.72-8.06 10.84 3.08-2.83 7.13-3.7 11.01-4.82 3.82-3.72 8.8-7.39 9.52-13.06 4.47-8.63 7.66-18.04 13.69-25.79 1.02-1.35 1.47-3.01 1.29-4.69 0.84-1.35 1.67-2.73 2.17-4.24 3.32-3.57 5.94-7.91 7.39-12.58 2.46-3.86 4.27-8.16 6.46-12.19 1.87-4.11 4.79-7.93 5.03-12.59 0.38-3.84 1.22-7.64 1.34-11.49l0.12 0.38c1.41-5.21 2.85-10.42 4.31-15.61 0.85-2.78-0.26-5.62-0.59-8.37-0.99-4.9-1.58-9.87-2.66-14.72 0.93-0.71 1.88-1.41 2.85-2.09-0.44-2.01-0.81-4.03-0.94-6.06 1.51 1.94 1.99 4.43 2.99 6.66 1.28-0.67 2.58-1.32 3.79-2.16 1.39 2.77 2.99 5.46 4.03 8.41 2.1 5.92 5.14 11.58 5.78 17.94 1.47 6.01 0.98 12.2 1.25 18.32-0.74 2.9-1.24 5.84-1.54 8.82-0.52 5.17-2.3 10.08-3.78 15.02-4.63 5.52-7.75 12.5-12.47 18.11-4.44 5.26-8.02 11.18-12.76 16.18-4 3.53-8.64 6.29-12.32 10.16 0.39 0.26 1.16 0.8 1.54 1.06-2.92 2.33-7.99 4.88-6.42 9.42 2.54-1.24 4.32-3.51 6.38-5.38 4.88-4.6 10.43-8.61 14.38-14.1 8.99-11.02 16.96-22.93 22.92-35.86 3.84-6.82 7.22-14.03 8.76-21.75 0.97-4.96 2.75-9.75 3.34-14.78 1.63-3.68 3.45-7.85 2.71-11.9-0.06-1.56-0.12-3.1-0.17-4.63 0.7 1.93 0.66 4.47 2.47 5.78 1.08-7.19-0.43-14.78-4.53-20.76l-0.03-0.33c-3.15-4.1-6.33-8.22-10.38-11.47-2.77-1.91-3.34-5.36-4.74-8.18-1.62-3.37-3.23-6.74-4.61-10.2-5.81-18.98-16.24-36.06-25.37-53.56-2.85-4.85-2.81-10.62-4.43-15.88-1.01-3.28-0.09-6.76-0.84-10.07-0.92-4.28-0.45-8.66-0.56-12.99-0.12-7.34-0.11-14.68-0.12-22.02-0.52-9.4-2.88-18.71-7.09-27.13-0.96-2.68-2.15-5.29-3.56-7.74-0.14-2.17-0.72-4.25-1.63-6.2-3.65-8.23-6.49-16.89-11.32-24.54-0.65-3.19-3.1-5.7-4.79-8.4-6-7.33-12.07-14.88-19.94-20.26-2.17-2.18-4.41-4.27-6.55-6.46l-0.28 0.21c-1.14-1.16-2.31-2.24-3.58-3.19-1.27-0.99-2.46-2.01-3.73-2.95-0.59-2.54-2.93-3.94-4.67-5.62-4.44-4.11-9.68-7.22-15.06-9.91-4.57-2.27-8.66-5.33-13.01-7.94-1.48-0.86-3.04-1.92-4.82-1.5-1.28-0.95-2.71-1.78-4.28-1.95-1.27-2.27-3.66-3.46-5.73-4.84-3.59-2.11-7.39-4.48-11.71-4.28-6.42-3.32-12.76-7.31-20.23-7.49l-0.14-0.42c-1.58 0.08-3.61-1.06-4.87 0.03-4.02-1.94-6.42-6.03-10.31-8.17-4.01-4.8-9.61-8-14.78-11.42-5.22-3.52-11.93-3.93-17.77-1.84-3.4 0.67-6.75 1.56-10.03 2.61-1.17-0.3-2.33-0.39-3.48-0.26-5.92 0.89-11.92 0.19-17.86 0.52-0.01-2.03 0.03-4.07-0.4-6.05-0.11 2.17-0.15 4.36-0.31 6.54-0.75 0.18-2.23 0.53-2.97 0.71 0.56-0.37 1.7-1.12 2.27-1.49-0.12-2.04-0.2-4.08-0.24-6.11-1.64-0.12-3.37-0.05-4.76-1.06l-0.11 0.63-0.06-1.19c-1.42-0.14-2.76-0.31-4.14-0.39-3.31-1.93-6.73-4.78-10.83-4.02-1.23-5.97-2.14-14.39-9.6-15.49 4.73 3.82 5.69 10.2 5.85 15.91-0.78-0.15-2.36-0.45-3.15-0.6 0.54 0.36 1.61 1.07 2.15 1.43-2.42 0.75-4.19 3.26-6.85 3.06-2.33-0.2-4.57 0.5-6.36 1.97-1.44-3.33-1.13-7-0.91-10.51 3.68 1.67 7.5 3.15 11.52 3.78-3.81-1.86-7.99-3.18-11.28-5.94-1.91-2.97-1.94-6.89-4.47-9.54-0.62-0.18-1.85-0.53-2.47-0.7 0.68 1.49 1.31 3.02 1.95 4.55-2.51 0.52-2.61-3.09-3.02-4.79-2.86-2.1-2.55-6.2-4.87-8.73-1.37-2.17-3.88-2.86-6.3-2.7 4.66 1.96 6.7 7.35 6.83 12.09-0.95 0.99-1.86 1.99-2.75 3-2.69-2.49-6.39-5.28-10.05-2.9 3.61 0.15 8.17 2.49 6.37 6.82l-0.72 0.93c-2.66 2.03-4.82 4.65-7.67 6.43-0.94-2.06-1.56-4.23-1.96-6.44 1.24-2.28 2.63-4.54 3.02-7.15-1.33 1.96-2.51 4-3.7 6.04-1.45-2.3-2.16-5.34-4.55-6.88-0.14-0.52-0.42-1.55-0.56-2.06 1.89-2.56 4.18-4.78 6.14-7.29-5.11 1.34-6.38 7.88-11.78 8.72l-0.08 0.56c-3.13 0.65-4.37-2.4-5.2-4.74-4 0.83-6.67 4.39-8.37 7.86-1.37-1.07-2.01-2.73-2.95-4.13-0.26 3.25 1.08 6.45 0.62 9.79-2.03 5.89-4.19 13.2 0.4 18.49-0.08 1.72-0.42 3.41-1.08 5.01-1.43 0.23-2.79 0.77-4.12 1.25-1.29-5.17-2.63-10.54-1.4-15.86-1.11 0.98-1.73 2.32-2.39 3.6-0.29-6.03 2.14-11.61 2.99-17.46-3.53 4.22-3.7 10.02-3.58 15.25 0.2 2.96-0.92 5.81-0.86 8.75-0.21 3.14-0.3 6.3-0.52 9.45-0.24 0.2-0.7 0.62-0.94 0.82-2.02 0.24-3.98 0.66-5.88 1.34 0.67 0.11 2 0.34 2.66 0.46-4.07 3.85-8.71 7.04-13.11 10.52l-0.58-1.23c2.02-2.6 4.02-5.23 6.31-7.61-3.32 0.81-5.49 3.58-7.56 6.07-2.27-0.84-4.6-1.59-7.04-1.48-3.75-1.53-8-1.69-12.01-1.79 1.58 0.21 3.02 0.75 4.32 1.62-0.89 0.34-2.68 1.01-3.58 1.35-0.99 0.07-1.94 0.25-2.86 0.53-0.09-0.71-0.26-2.15-0.35-2.86-1.3 4.5-2.48 9.2-5.37 13-2.62 3.34-5.48 6.48-8.51 9.46-1.26 1.04-1.41 2.74-1.91 4.2-9.8 2.32-19.47 5.36-28.41 10.04-3.13 1.65-6.39 3.1-9.18 5.31-4.55 3.47-10.59 4.32-14.82 8.25-2.48 2.15-4.57 4.69-6.92 6.97-3.88 3.82-8.47 6.79-12.52 10.41-3.15 1.15-5.3 4.12-7.7 6.36-3.93 4.08-8.48 7.51-12.1 11.89-10.23 12.22-19.02 25.95-23.88 41.22-1.47 4.34-1.26 9.2-3.69 13.22-3.83 6.67-6.7 13.83-10.31 20.62-2.3 4.36-6.12 8.09-6.89 13.12 2.93-4.06 5.62-8.3 8.25-12.56 3.47-5.65 5.21-12.19 8.92-17.71 1.19 7.96-2.61 15.95-7.67 21.95-3.57 4.16-6.21 9.02-9.77 13.18-2.52 3.22-6.39 4.96-8.98 8.11l-1.44-0.16c-0.2-0.74-0.61-2.24-0.82-2.98-1.67 4.95-4.67 9.99-3.5 15.38 1.94-4.04 2.74-9.65 7.7-11.19-1.6 6.23-5.36 12.28-3.79 18.94-2.28 7.38-4.44 14.91-8.37 21.61-1.78 2.87-1.59 6.58-0.73 9.73 3.44-6.02 4.63-13.18 7.79-19.41-0.83 11.38-4.33 22.3-7.61 33.16-1.94 5.79-3.14 11.82-3.39 17.93-0.19 6.67-1.86 13.43-0.2 20.05 1.08-5.73 0.93-11.63 2.25-17.31 1.91-5.45 3.01-11.18 5.56-16.39 3.86-10.43 8.14-21.12 7.92-32.43 0.12-6.02-1.16-11.95-1.23-17.95l0.65-0.34c1.44-3.23 2.75-6.53 4.54-9.59 1.45-2.57 3.57-4.73 4.67-7.5 3.9-4.29 7.69-8.7 11.49-13.09 0.31 1.89 0.44 3.85-0.08 5.74-1.46 5.82-2.59 11.72-3.26 17.69-0.66 1.16-1.17 2.39-1.52 3.69-2.97 2.43-1.55 7.04-2.2 10.4-1.66 6.76-6.45 12.79-6 20.02 0.89-2.4 0.66-5.51 2.84-7.23-0.1 4.78-0.69 9.52-1.16 14.27-0.4 3.99-0.05 8.07-0.95 12.02-2.26 10.8-7.1 20.87-9.28 31.7-0.74 5.47-0.16 11.02-0.68 16.51-0.88-1-1.61-2.11-1.89-3.39-1.77-6.79-1.91-13.88-1.59-20.85 0.17-3.78 2.13-7.2 2.18-11-2.62 6.32-3.86 13.13-3.54 19.98-0.55 9.51 5.02 17.76 6.47 26.94 1.07-3.82 2.91-8.08 0.87-11.89-0.1 1.73-0.16 3.47-0.23 5.22l-0.96-0.52c-1.55-3.79 0.45-7.77 0.14-11.68-0.28-4.76 1.66-9.16 2.38-13.78 2.84-2.68 2.56-7.11 4.64-10.32 0.2 0.77 0.59 2.3 0.78 3.06-2.85 4.48-2.21 10.07-2.48 15.14 1.16 5.53 2.19 11.21 4.8 16.29 0.8 2 2.26 4.02 1.71 6.29-0.19 1.66-1.01 3.43-0.05 5.04-0.84 2.49-1.66 4.99-2.57 7.46l-1.72 0.32c-0.18 3.45 0.18 6.91 0.99 10.27 1.39 6.05-0.85 12.11-0.41 18.21 0.51 1.78 2.08 2.99 3.19 4.43-0.86 2.65-0.51 6 1.12 8.33 0.26-0.8 0.55-1.6 0.84-2.38 2.05-0.37 4.11-0.73 6.17-1.1 0.4 0.34 1.2 1.02 1.6 1.37 1.23-1.1 2.49-2.15 3.74-3.22 0.88 0.12 1.78 0.26 2.7 0.4 0.94-0.7 1.92-1.38 2.92-2.01-0.24 1.25-0.63 2.5-1.46 3.52-3.83 5.01-3.76 12.17-8.37 16.68-2.21 2.25-3.26 5.3-4.92 7.94-2.5 4.35-6.33 7.72-8.88 12.04 6.87-4.01 10.41-11.67 15.76-17.3 0.09 1.78 0.18 3.58 0.28 5.39 1.84-5.39 3.27-10.91 5.43-16.2 2.7-8.27 8.55-15.56 9.09-24.46 2.53-4.45 2.99-9.98 2.21-14.96 0.61-1.1 1.24-2.19 1.92-3.24 2.55 0.45 5.1 0.99 7.69 1.26 0.5 1.86 0.88 3.76 1.16 5.69-0.28 1.72-0.43 3.44-0.55 5.19-0.81 3.69-1.08 7.46-1.54 11.21-1.21 3.24-1.49 6.89-2.78 10.19-2.85 10.04-7.7 19.66-8.32 30.23 0.53 3.56 1.83 6.97 3.25 10.27 0.43 2.89 1.74 5.5 3.49 7.83-1.83 3.45-4.73 6.15-6.7 9.5-2.99 4.77-5.34 9.91-8.13 14.79-1.5 2.25 0.21 4.6 1.32 6.58-0.94 1.63-2.19 3.16-2.64 5.02 0 2.66 0.77 5.24 1.28 7.85 1.7-0.53 3.38-1.12 5.05-1.77 0.25 1.17 0.52 2.36 0.8 3.56 0.8-0.85 1.61-1.69 2.42-2.52-0.08 1.74-0.83 3.71 0.32 5.3 1.65-4.53 4.39-8.82 4.96-13.65 3.6-4.38 6.85-9.14 8.16-14.75 4.45-6.03 12.19-8.5 16.27-14.86 3.26-3.37 7.47-5.95 12-7.24-0.02 0.5-0.05 1.48-0.07 1.98-2.35 4.98-8.13 6.92-10.58 11.89-3.3 2.33-5.44 5.85-8.55 8.4-4.1 3.39-6.33 8.34-9.5 12.51-3.57 4.55-4.97 10.31-5.79 15.93 0.35-0.26 1.06-0.77 1.42-1.02 0.5 0.29 1.02 0.61 1.55 0.94 0.59-0.84 1.19-1.66 1.81-2.47 0.57 3.84 0 7.73 0.28 11.6 0.84-0.44 1.7-0.87 2.57-1.29 0.22 0.56 0.67 1.67 0.89 2.22 0.55 0 1.66-0.01 2.21-0.02 1.53-3.54 4.43-6.78 4.26-10.81 2.33-3.41 4.5-6.92 6.75-10.39 1.27-1.97 2.95-3.83 5.31-4.45-1.22 3.65-3.6 7.04-3.53 11.02 0.81 5.8-3.56 10.44-4.75 15.89-1.65 3.56-0.27 7.4-0.67 11.12-0.08 1.36-0.52 2.94 0.61 4.04 0.67-1.64 1.3-3.28 1.9-4.94 0.25 1.66 0.53 3.32 0.87 4.99 3.25-3.32 1.94-8.58 4.25-12.43 2.89-5.2 4.6-11.04 8.27-15.78 3.95-5.22 6.95-11.06 10.56-16.51 3.66-5.88 7.78-11.84 9.44-18.64 3.27-3.47 3.73-9.38 8.44-11.39 0.14 0.74 0.44 2.22 0.59 2.96-0.39 0.77-0.74 1.56-1.07 2.37-2.4 1.6-3.07 4.59-3.41 7.28-0.38 3.18-2.31 5.86-3.18 8.9-2.4 1.92-3.41 4.94-5.08 7.41-4.54 7.06-7.38 15.03-11.99 22.04-2.78 4.33-4.77 9.08-7.16 13.63-2.71 4.82-3.08 10.46-3.87 15.83 1.78-1.34 3.44-2.86 4.74-4.69 0.52 3.13 0.98 6.27 1.33 9.44 1.42-0.54 2.89-0.98 4.4-1.26 5.17-9.06 7.39-20.27 15.95-27.08-0.09 2.85-1.17 5.95 0.42 8.58 2.69 0.3 5.4 0.57 8.12 0.8 1.36-1.18 2.52-2.56 3.17-4.25 0.21-0.36 0.62-1.08 0.82-1.43 1.2 0.99 2.78 1.7 3.63 3.08-1.65 2.84-4.48 5.16-4.58 8.7-12.8 5.31-24.78 12.34-36.55 19.59-3.27-1.62-6.24-3.74-9.32-5.66-1.93-1.65-4.1-2.96-6.17-4.39-2.78-1.85-5.74-3.38-8.84-4.59-1.52-0.45-2.07-2.03-2.74-3.25-2.99-6.76-7.75-12.54-10.73-19.31-1.64-4.29-5.23-7.26-8.12-10.66-5.38-5.67-10.17-11.9-16.12-16.99-14.15-13.16-27.88-26.76-41.98-39.97-28.31-28.06-56.1-56.61-84.39-84.69-6.26-6.43-13-12.42-18.56-19.5-6.57-6.91-10.5-15.7-15.17-23.88-4.91-8.87-10.44-17.38-15.89-25.92-8.37-9.62-17.71-18.38-25.72-28.31-7.38-9.3-11.18-20.7-16.76-31.04-4.68-8.47-12.1-14.82-19.48-20.84-2.04-1.6-4.37-2.92-5.81-5.13-4.84-6.95-8.86-14.43-13.5-21.51-5.34-8.14-11.72-15.53-18.19-22.78-4.19-4.65-6.49-10.7-7.95-16.7-0.76-3.27-2.39-6.34-4.84-8.64-3.49-3.77-9.04-5.55-11.14-10.56-3.18-7.67-2.79-16.33-6.21-23.94-6.42-12.53-15.22-23.64-22.28-35.8-13.05-20.93-23.23-43.43-34.61-65.27-7.98-16.14-16.82-31.83-25.42-47.64-3.67-6.87-8.08-13.29-12.04-19.98-11.62-18.77-23.22-37.54-34.78-56.34-20.9-34-42.41-67.68-61.04-103-9.41-17.27-17.77-35.09-26.08-52.9-3.4-7.18-6.26-14.63-10.33-21.47-2.27-6.54-5.98-13.66-13.23-15.56-1.5-2.57-2.95-5.18-4.44-7.75-4.01-6.48-9.87-11.48-14.71-17.3-7.81-8.78-17.57-15.48-27.44-21.72-17.09-10.14-35.79-17.06-53.89-25.11-9.59-5.01-18.6-11.13-28.57-15.42-4.2-1.95-8.57-3.72-12.25-6.59-7.52-6.9-19-5.83-26.99-11.96-5.71-3.69-11.57-7.14-17.36-10.7-10.93-6.7-23.87-9.3-34.46-16.64-6.84-4.99-15.17-7.1-23.02-9.89-4.14-1.54-8.62-1.8-12.73-3.39-5.58-2.8-9.59-7.96-15.3-10.56-3.92-1.76-7.96-3.27-11.73-5.36-7.03-4.05-15.09-6.72-23.26-6.61-0.33 2.05 0.37 3.96 1.8 5.44-2.6 3.71-2.47 8.79-0.08 12.57 4.35 8.89 13.42 13.64 21.37 18.78 5.56 3.78 11.57 6.9 16.56 11.45 7.23 4.29 14.8 8.03 22.2 12.05-4.67-0.05-9.43 0.2-13.89 1.69-7.95 2.44-14.86 7.19-22.08 11.15-8.07 4.73-16.3 9.27-23.61 15.15-8.93 6.16-18.64 11.74-25.44 20.41-8.2 5.96-18.72 11.63-21.04 22.38 1.4-0.11 2.78-0.3 4.15-0.56 1.47 2.27 3.31 4.35 5.76 5.57 3.78 2.5 8.48 1.1 12.63 0.56-3.54 4.13-7.44 8.15-9.52 13.26-0.65 1.89-1.9 3.97-0.62 5.89 1.42 0.62 2.65-0.49 3.84-1.09 2.1 2.81 5.2 5.17 8.92 4.65 10.64 0.17 18.68-7.71 26.04-14.32 3.19-2.44 4.95-6.65 9-7.87 11.12-4.11 22-8.92 32.25-14.89 2.11-1.09 4.24-2.89 6.8-2.25 4.53 1.37 8.93 3.32 13.69 3.79 4.78 0.8 9.65 0.22 14.44 0.86-9.4 2.5-18.94 4.5-28.31 7.11-4.43 1.38-8.06 4.68-10.43 8.6-3.89 6.36-8.47 12.25-12.68 18.38-5.18 4.31-10.25 8.86-16.2 12.11-4.33 3.97-9.58 6.92-13.39 11.46-1.28 1.47-1.3 3.45-0.87 5.25 1.35 1.13 3.03 1.46 4.76 1.4 1.68 1.62 3.34 3.43 5.64 4.16 4.84 1.86 10 0.04 14.59-1.67 5.64-2.3 11.61-4.88 15.37-9.9 5.1-7.35 14.07-10.45 19.91-17.06 2.01-2.17 3.93-5.09 7.17-5.33 11.15-0.56 22.14-2.66 33.22-3.88 4.63 0.13 8.07 3.87 12.38 5.16 6.88 2.88 14.47 2.05 21.66 3.36 4.45 0.69 8.33 3.12 12.05 5.51-7.44 1.65-14.93 2.99-22.55 3.38-8.73 2.15-17.78 2.63-26.45 5.06-10.8 2.99-21.49 7.73-29.27 15.99-4.92 7.15-0.5 18.27 7.66 20.8 8.33 4.72 18.22 4.57 27.49 4.36 8.92-0.45 17.79-2.06 26.35-4.61 6.66-2.66 13.66-4.38 20.71-5.67 6.86-1.21 13.88-2.36 20.85-1.32 4.95 0.76 9.98-0.11 14.93 0.5 5.64 1.52 11.35 2.89 17.18 3.41 6.85 0.16 13.7 0.02 20.55 0.06 0.32 1.66 0.63 3.33 1.03 4.98 5.72 17.3 12.94 34.12 18.74 51.43 6.25 17.37 11.68 35.03 17.1 52.68 12.81 46.44 24.47 93.19 37.37 139.61 5.78 18.63 11.54 37.26 17.42 55.86 5.86 14.73 12.07 29.33 18.02 44.03 3.68 7.88 7.59 15.65 11.3 23.51 4.75 9.28 8.59 19.03 14.05 27.94 10.99 20.24 23.37 39.69 36.52 58.58 11.5 16.43 24.87 31.52 35.37 48.65 5.71 8.74 11.09 17.7 16.25 26.79 13.75 23.55 28.18 46.74 43.92 69.03 10.41 15.14 20.47 30.56 31.9 44.97 6.06 7.92 12.02 15.94 18.71 23.36 7.32 8.08 13.42 17.18 20.75 25.26 13.64 16.03 27.99 31.46 40.76 48.21 10.63 13.7 22.08 26.79 31.73 41.22 6.06 8.72 12.29 17.35 17.24 26.78 3.49 6.9 8.83 13.04 10.23 20.82 4.27 15.02 7.69 30.28 12.87 45.03 7.08 23.19 15.08 46.08 23.21 68.92 4.15 10.12 8.3 20.25 12.49 30.37 2.72 7.55 6.82 14.45 10.3 21.66 4.25 7.54 7.53 15.59 12.07 22.98 5.04 8.31 9.4 17.06 15.34 24.79 2.01 3.23 5 5.97 6.23 9.63 1.33 12.14 3.49 24.18 5.85 36.16 0.18 3 0.86 6 1.56 8.95-0.56 8.47-3.56 16.43-6.22 24.41-7.08 19.06-16.04 37.37-23.03 56.47-4.13 9.33-6.93 19.17-10.44 28.74-1.5 5.97-3.37 11.85-4.7 17.87-2.03 7.19-2.17 14.73-3.75 22.02 0 10.96-0.74 22.05 1.41 32.89 1.56 7.3 2.14 14.86 4.98 21.84 1.44 3.44 1.82 7.21 3.43 10.6 2.14 5.91 5.34 11.34 7.8 17.12 13.49 24.93 33.39 45.52 48.84 69.16 12.06 21.6 19.89 45.14 30.45 67.46 8.72 20.75 20.54 39.96 31.65 59.49 9.52 15.63 18.98 31.33 27.57 47.51 9.11 16.15 18.74 32.13 30.6 46.44 7.99 10.88 17.33 20.71 27.54 29.54 5.61 4.5 9.8 10.38 13.46 16.51 9.78 16.55 20.23 32.71 31.95 47.96 7.26 9.77 14.24 19.75 21.28 29.7 17.24 25.77 36.37 50.22 55.96 74.23 7.46 8.8 14.36 18.1 22.41 26.4 9.37 9.31 18.53 18.85 28.3 27.76 5.7 5.61 12.61 10.15 16.96 17.01 3.96 5.62 8.12 11.17 13.08 15.99 3.55 3.75 7.62 7.07 10.67 11.3 3.99 5.31 6.08 11.72 9.64 17.3 3.41 5.76 8.79 9.88 13.46 14.55 4.05 3.87 5.34 9.52 7.43 14.52 3.88 9.98 12.36 17.02 18.3 25.72 4.62 5.35 3.62 12.89 5.66 19.27 3.54 7 3.98 15.13 3.28 22.84-0.36 4.06-1.25 8.39 0.6 12.25 1.45 4.98 2.23 10.51 0.51 15.54-0.83 5.1-0.95 10.37-0.19 15.51 0.34 3.07 3.13 4.86 5.22 6.82 0.65 18.59 0.55 37.22 2.32 55.76 0.84 11.61 0.94 23.29 2.43 34.86 1.36 12.5 2.86 24.99 4.02 37.52 9.53 74.25 22.12 148.07 35.62 221.69 3.54 20.58 8.26 40.93 12.28 61.42 4.7 22.17 9.93 44.23 14.26 66.48 4.85 20.9 9 41.95 13.06 63.02 4.09 26.87 9.49 53.51 14.57 80.2 4.16 21.56 8.95 42.99 14.02 64.36 1.89 10.36 5.86 20.22 7.76 30.58 2.18 21.05 11.05 40.48 16.96 60.6 3.55 11.16 8.98 21.57 13.88 32.18 4.3 9.67 6.49 20.09 9.49 30.21 1.75 5.4 1.98 11.12 2.91 16.71 1.65 12.35 3.5 24.69 5.05 37.06 1.05 14.66 2.02 29.33 2.98 44 0.15 38.75 0.43 77.5 3.2 116.17 1.84 27.6 3.47 55.23 3.19 82.91 0.24 24.06-1.13 48.09-2.55 72.11-2.04 24.33-3.93 48.67-5.79 73.01-4.87 46.85-9.26 93.77-15.95 140.41-3.39 23.36-6.75 46.75-11.41 69.9-2.2 8.95-4.55 17.87-5.6 27.06-2.66 17.41-5.47 34.88-5.74 52.53-0.43 8.66-0.78 17.33-0.63 26.02 0.28 8.67-0.88 17.34-0.06 26.02 0.18 10.02 0.53 20.04 2.01 29.98 2.53 25.57 7.67 50.77 12.94 75.9 3.85 17.73 5.04 36.07 2.67 54.11-1.49 10.97-1.53 22.12-3.69 33.02-2.17 11.25-5.16 22.43-5.9 33.91 0.72 7.34 0.32 14.94 2.88 21.99 2.67 9.03 5.84 17.92 8.23 27.05 3.68 12.85 4.84 26.34 9.54 38.92 2.59 6.43 4.85 13.01 7.69 19.37 4.52 9.53 8.21 19.68 15.09 27.87 2.78 3.66 8.15 4.57 12.28 2.88 10.47-4.81 19.3-15.01 19.05-27.04 1.89 2.62 4.2 5.39 7.64 5.91 6.98 0.72 13.76-2.93 18.37-7.95 3.22-4.36 3.51-10.26 2.1-15.32 3.45 0.49 6.71-0.99 9.4-3.02 6.86-4.82 8.77-14.2 6.96-21.99-1.43-4.62-3.78-8.88-6.04-13.12-2.31-4.26-7.05-6.61-8.94-11.13-2.06-4.7-3.54-9.64-4.46-14.66 1.52 4.57 2.97 9.31 6.06 13.14 3.87 5.22 7.89 11.49 14.69 13.03 5.26 0.17 8.78-4.66 11.43-8.57 4.4-7.66 2.25-17.18-2.59-24.08 2.77 1.58 5.91 2 9.07 1.7 6.01-2.84 9.57-9.48 9.29-16.01 0.43-10.6-4.64-20.18-7.78-29.98-0.4-2.26-2.27-5.09-0.18-6.96 5.64-7.2 12.81-14.03 14.45-23.37 2.43-6.01 3.47-12.41 5.3-18.58 2.91-11.29 7.09-22.18 10.96-33.15 3.5-9.1 5.28-18.82 9.74-27.54 4.56-9.33 8.77-18.86 14.19-27.73 5.62-8.47 10.77-17.23 15.99-25.94 2.31-3.55 2.72-7.86 4.08-11.76 1-4.27 3.42-8.45 2.35-12.91-0.26-5.29-2.21-10.24-3.96-15.15-8-16.93-19.29-32.35-33.46-44.63-8.19-6.71-18.17-10.5-27.13-15.98-3.89-2.65-8.28-4.85-10.86-8.94-3.59-3.9-5.88-9.03-5.79-14.36-0.61-5.41 1.47-10.56 2.36-15.8 1.13-6.49 3.26-12.77 4.04-19.31 3.12-20.06 6.08-40.19 10.79-59.94 4.58-20.76 10.2-41.26 14.95-61.96 2.58-13.58 6.83-26.73 10.66-39.97 6.98-28.84 15.85-57.17 23.6-85.8 7.35-23.02 11.57-46.96 20.16-69.58 7.32-18.05 14.09-36.38 19.01-55.24 3.21-10.09 4.66-20.61 6.83-30.94 2.97-13.14 3.57-26.64 5.39-39.95 1.84-12.41 1.47-24.97 2.22-37.45 0.23-9.36 1.23-18.71 0.59-28.05-0.69-12.35-1.11-24.72-1.96-37.05-1.63-12.2-3.46-24.37-5.27-36.52-3.39-13.32-6.02-26.85-10.68-39.8-3.83-12.18-7.8-24.31-11.47-36.53-6.15-20.22-13.56-40.14-17.37-60.99-2.01-12.08-5.36-23.89-6.77-36.06-1.98-16.95-3.53-33.94-5.68-50.85-1.39-10.07-2.59-20.15-3.55-30.26-0.69-13.71 0.74-27.38 1.79-41.02 3.02-24.28 3.87-48.76 6.75-73.05 3.19-19.39 6.22-38.82 7.9-58.41 1.76-13.8 1.9-27.73 2.97-41.58 2.34-23.23 2.16-46.61 3.84-69.89 1.76-25.63 3.46-51.27 3.98-76.95 0.46-11.02 1.07-22.06 0.34-33.07-0.18-11.66 0.28-23.33-0.38-34.96-1.12-23.29-1-46.61-1.66-69.9-0.04-34.86 3.58-69.59 7.44-104.19 1.36-10.29 3.13-20.81 8.44-29.88 4.73-8.35 8.41-17.24 13.06-25.63 5.16-10.02 10.12-20.15 14.79-30.41 3.93 0.29 7.84 0.92 11.79 1.27 2.74-1.01 4.04-3.86 5.26-6.29 2.58-5.82 4.64-11.91 5.46-18.24 2.25-9.08 5.92-17.75 8.39-26.77 3.6-11.97 6.53-24.14 8.85-36.43 14.94-2.77 30.16-3.56 45.11-6.27 24.4-3.82 48.83-7.59 73.09-12.25 18.02-4.26 36.17-7.97 54.01-12.96 41.11-11.08 82.11-22.59 123.07-34.21 46.58-13.52 93.14-27.14 140.01-39.65 18.11-4.7 36.04-10.68 54.74-12.61 13.83-1.73 27.58-4.06 41.37-6.09 12.39-1.68 24.51-4.86 36.76-7.33 10.08-2.02 20.01-4.72 30.02-7.09 19.13-4.95 38.45-10.01 56.04-19.25 9.87-4.71 19.29-10.42 29.59-14.22 8.54-3.24 17.08-6.52 25.17-10.81 10.21-4.77 20.25-10 29.42-16.6 6.99-4.69 14.24-9 21.44-13.39 8.68-4.75 17.57-9.11 26.38-13.62 8.49-3.71 17.26-6.79 25.88-10.22 12.21-5 25.19-7.6 38.07-10.23 22.02-5.03 44.6-6.76 67-9.32 22.96-1.8 45.22-8.19 67.99-11.35 11.72-1.85 23.33-4.38 35.08-6.14 14.33-2.46 28.58-5.56 43.06-7.09 24.03-2.89 47.95-6.6 72.01-9.31 13.13-2.04 26.28-3.98 39.39-6.19 22.42-5.03 45.22-8.02 67.98-11.03 37.97-5.67 76.09-11.95 114.58-11.97 13.96 0.02 27.87 3.9 41.85 1.77 6.69-1.17 13.62-1.39 20.1-3.64 4.08-1.47 8.45-2.19 12.37-4.14 4.52-2.68 9.56-4.27 14.32-6.48 4.86-2 10.16-2.52 15.27-3.72 6.21-0.95 12.01-3.47 18.06-5.14 6.72-2 13.78-2.91 20.3-5.63 14.33-5.41 28.92-10.02 43.63-14.29 18.72-5.18 36.9-12.07 54.95-19.23 17.7-6.47 36.26-10.71 55.1-11.91 15.34-1.71 30.58-4.78 45.27-9.61 7.08-2.02 13.92-5.55 18.99-10.98 8.24-7.36 17.42-13.61 27.1-18.91 7.33-4.05 14.07-9.19 19.92-15.19 5.89-6.76 13.15-12.16 18.98-18.98 3.93-4.45 9.64-7.35 12.3-12.88 1.47-2.36 1.24-5.28 0.93-7.89zm-2124.6-1093.2c4.71 4.24 8.67 9.23 13.23 13.63 5.25 4.87 9.5 10.95 11.64 17.83 1.32 4.48 3.65 8.56 5.77 12.71 4.38 8.32 7.85 17.15 10.27 26.25-0.04 6.95 1.8 13.88 0.5 20.83-2.83-8.79-5.58-17.62-9.77-25.87-2.13-4.7-4.1-9.47-5.98-14.26-6.46-18.12-15.78-35.25-27.11-50.78 0.37-0.09 1.09-0.26 1.45-0.34zm-491.7 185.77c-0.13-2.61 0.35-5.19 1.18-7.65 3.24-9.93 6.69-19.92 7.8-30.36 0.39-3.36 0.74-6.73 1.38-10.05 3.38 16.82-4.69 32.72-10.36 48.06zm22.55 17.07c-1.31 6.24-0.9 12.65-1.23 18.99-1.17-4.63-2.99-9.3-2.2-14.15 0.96-6.45 1.61-13.09 4.39-19.06 0.15 4.75 0.07 9.55-0.96 14.22zm110.46-240.2c0.74 0.61 1.48 1.25 2.22 1.9-4.22 2.39-8.62 4.92-11.29 9.11-5.87 1.59-11.24 4.5-16.88 6.67 6.38-8.41 15.36-15.62 25.95-17.68zm-10.38 13.48c-0.67 1.57-1.24 3.19-1.7 4.84 0-0.58 0-1.74-0.01-2.32-8.39 2.47-15.78 7.24-22.89 12.19-0.17-0.56-0.52-1.67-0.69-2.22 2.17-1.72 4.35-3.46 6.76-4.85 3.47-1.76 6.94-3.53 10.41-5.31 2.55-1.2 5.17-2.85 8.12-2.33zm-21.79 4.62c2.79-2.93 5.22-6.37 8.94-8.2-2.64 3-5.68 5.62-8.36 8.59-2.93 3.02-5.73 6.28-9.37 8.46-1.18 0.37-2.35 0.71-3.52 1.03 4.43-2.85 8.75-5.97 12.31-9.88zm-20.8 19.1c3.93-1.93 6.96-6.54 11.64-6.33-2.23 2.6-4.07 5.52-6.52 7.92-6.56 6.67-13.44 13.07-19.5 20.21-3.4 3.75-5.49 8.72-9.82 11.57 1.69-14.45 12.8-25.47 24.2-33.37zm-25.42 41.74c3.77-10.22 11.04-18.7 18.74-26.2 3.78-3.43 6.91-7.54 10.94-10.68 0.05 3.83-1.01 7.93-3.93 10.6-10.19 10.68-18.67 22.79-26.33 35.37 0.23-3.03-0.25-6.15 0.58-9.09zm-5.88-4.12c1.94-3.71 3.82-7.45 6-11.02-0.44 5.09-1.18 10.22-2.95 15.04-2.31 3.19-4.52 6.47-7.11 9.45 1.04-4.59 3.1-8.87 4.06-13.47zm-6.05 21.86c0.94-1.67 1.87-3.35 2.89-4.97 2.18-2.66 3.88-5.66 5.8-8.5 0.17 0.52 0.49 1.55 0.66 2.07-0.22 1.77-0.41 3.56-0.58 5.35-1.07 6.96-5.4 12.8-8.55 18.94-0.48 0.02-1.46 0.04-1.94 0.06 0.84-4.28 1.74-8.57 1.72-12.95zm-13.32 71.65c0.53 0.1 1.61 0.3 2.14 0.39-0.03-1.5-0.63-3.18 0.4-4.48 2.51-3.84 5.84-7.08 8.24-11 4.94-6.37 7.98-14.31 14.31-19.48-0.05-3.01 0.73-5.93 2.17-8.57 0.08 0.51 0.26 1.55 0.35 2.06-2.42 4.59-1.58 9.71-1.8 14.67-4.72 5.64-7.87 12.44-12.56 18.14-2.99 4.59-7.38 7.91-11.78 11.05-1.36 0.97-2.72 1.92-4.1 2.86 0.76-1.94 1.64-3.82 2.63-5.64zm8.29 8.08c0.08 0.45 0.24 1.37 0.32 1.83-0.62 2.01-1.26 4.03-1.94 6.03-1.15 0.91-2.3 1.83-3.39 2.81-0.08-1.8-0.17-3.57-0.17-5.35-2.45 0.49-3.23-1.79-4.14-3.53 1.8-2.23 3.54-5.34 6.92-4.92-0.18 2.09-0.7 4.14-1.15 6.2 1.16-1.04 2.35-2.07 3.55-3.07zm-3.19 111.75c1.91 2.44 3.63 5.04 4.78 7.96-1.01 1.64-2 3.29-3 4.95-1.82-4.94-3.34-10.01-5.88-14.64 0.58-1.29 1.09-2.6 1.67-3.88 0.52-1.13 1.08-2.23 1.66-3.32 0.35 0.93 1.05 2.8 1.39 3.73 0.21 0.72 0.43 1.45 0.66 2.2-0.55 0.84-1.08 1.71-1.55 2.61l0.27 0.39zm-7.49-53.63c-0.35-2.29-1.05-4.6-0.49-6.9 2.28-10.14 2.59-20.95 7.59-30.29 0.33 0.48 0.98 1.43 1.31 1.9-0.46 11.23-3.3 22.5-1.29 33.71 0.85 6.49-1.8 12.72-1.73 19.18-0.06 1.63-0.36 3.25-0.68 4.87-1.61 2.59-3.53 4.97-5.58 7.23 0.32-9.9 1.74-19.79 0.87-29.7zm14.84 81.76c-0.52-1.37-0.61-2.83-0.58-4.27-1.42 0.06-1.58 1.54-2.07 2.58-3.21-0.73-4.4 2.88-6.52 4.48-0.83 1.01-1.8 0.27-2.55-0.3-1.11 0.43-2.22 0.88-3.31 1.35 0.46-4.36 2.23-8.5 2.28-12.9-0.58-5.22-2.03-10.73 0.08-15.81 2.45-0.4 2.75 2.97 3.73 4.59 1.48 2.59 1.07 6.3 3.3 8.35 0.48-0.98 1.23-1.73 2.3-1.95 0.38-1.82 0.87-3.61 1.84-5.2 2.17 3.74 3.88 7.79 4.92 12.01-0.14 2.64-1.48 5.25-3.42 7.07zm19.21-46.66c-0.82-0.17-2.44-0.51-3.25-0.68 1.44-2.02 4.2-3.84 3.61-6.65-1.32-3.82-4.06-6.92-5.82-10.51l-0.37-0.02c-2.72 2-3.45-2.67-4.01-4.45-0.23 0.66-0.69 2-0.93 2.66-2.08-1.02-4.12-2.27-4.77-4.64 0.16-0.68 0.49-2.03 0.66-2.7 0.5 0.55 1.51 1.67 2.01 2.22 0.36-1.43 0.72-2.86 1.1-4.27 0.58-0.44 1.17-0.87 1.78-1.28 0.52 2.46 1.26 4.89 2.41 7.15 0.21-3.64-1.53-8.14 1.74-10.89 5.13-5.28 8.61-12.02 9.96-19.25 1.49-4.9 1.22-10.06 2.09-15.04 2.08-3.78 4.31-7.5 5.54-11.68 4.67-1.41 3.16-6.85 4.35-10.46 2.42-8.44 1.23-17.7 5.21-25.71 1.14-0.62 2.32-1.22 3.45-1.89-0.87 5.38-0.78 10.86-0.02 16.25 0.18 2.85 0.78 5.83-0.13 8.63-2.24 7.34-4.29 14.75-5.56 22.33-2.49 4.61-3.06 9.91-5.09 14.71-2.65 6.55-3.72 13.62-3.42 20.66-0.14 3.43 0.8 7.28-1.3 10.31-3.06 2.4-5.81 5.26-7.49 8.79-0.67 0.93-0.27 2.02-0.11 3.04 2.94-2.41 5.6-5.16 8.62-7.49-0.49 4.72-1.76 9.32-2.37 14.03-2.57 2.35-5.04 4.81-7.89 6.83zm12.65 77.51c-1.88 2.6-3.1 5.59-4.54 8.44-1.44-2.59-2.33-5.47-2.24-8.44-0.23-3.14 2.19-5.5 3.47-8.14 3.75-1.13 7.53-2.24 11.44-2.74-1.6 4.39-5.54 7.15-8.13 10.88zm3.25-32.51l-0.15-0.63c1.11-3.21 2.4-6.38 3.2-9.69 1.6-4.68-2.47-9.27-0.35-13.94 2.43 5.23 5.08 10.44 8.78 14.91-2.72 4.31-7.41 6.57-11.48 9.35zm12.64-174.18c-0.76 2.24-1.65 4.47-3.01 6.43-1.21 1.01-2.45 1.97-3.69 2.94 0.8-4.84 1.46-9.8 3.55-14.28 0.79-2.16 3.43-3.54 5.58-2.47-0.87 2.44-1.67 4.9-2.43 7.38zm14.31-25.55c-0.73 1.67-1.75 3.21-2.95 4.59-1.87 1.9-3.65 3.9-4.99 6.22-0.89-0.77-1.77-1.54-2.64-2.29l0.25-0.38c4.17-6.73 7.54-13.93 11.51-20.79 1.09 4.26-0.78 8.43-1.18 12.65zm-12.41-72.24c-1.57 1.08-3.16 2.15-4.73 3.22 1.12-5.8 4.3-11.22 9.34-14.44 7.6-4.46 14.18-10.84 22.78-13.44-1.04 1.74-2.07 3.49-3.18 5.19-7.71 6.92-16.02 13.14-24.21 19.47zm44.16 28.77c-0.08-0.56-0.23-1.66-0.31-2.22-3.84 7.36-6.82 15.15-11.1 22.28-1.86 3.2-3.88 6.38-4.8 10.02-0.6 0.68-1.18 1.36-1.74 2.06-1.46 1.36-2.93 2.72-4.33 4.13 2.4-8.11 4.66-16.3 5.32-24.78 1.54-3.35 3.51-6.48 5.18-9.76 0.7-1.38 1.36-2.77 1.95-4.19 0.03 0.52 0.08 1.58 0.11 2.1 3.73-3.86 7.41-7.8 11.38-11.43 0.79-0.97 1.97-1.2 3.18-1.09-1.18 4.45-3.2 8.59-4.84 12.88zm5.49-18.84c-2.52 1.92-4.86 4.06-7.36 6.01-0.39-0.05-1.17-0.14-1.56-0.19 3.72-4.79 7.63-9.46 10.9-14.58 0.3 0.62 0.91 1.85 1.22 2.46-1.22 2.02-2.2 4.17-3.2 6.3zm5.6-58.72c-1.51 0.95-3 1.9-4.52 2.81-2.76 1.99-6.28 0.96-9.42 1.16 5.65-2.43 11.14-5.51 17.2-6.81-1.06 0.99-2.09 2.01-3.26 2.84zm17.78-1.25c-4.02-2.73-8.58 1.03-12.84 1.29 4.3-2.89 8.96-5.8 14.31-5.9-0.8 1.15-1.6 2.31-2.38 3.48 1.05 0.25 2.11 0.49 3.19 0.73-0.78 0.13-1.54 0.26-2.28 0.4zm-5.58-5.78c-0.06-2.01 1.78-3.17 2.95-4.53 3.69-3.69 6.94-7.79 9.68-12.24 0.35 4.91 0.6 10.27-2.28 14.54-3.24 1.47-6.9 1.56-10.35 2.23zm30.57-5.05c-2.06 1.42-4.77 1.11-7.12 1.51-3.77 0.12-7.5 0.69-11.2 1.31 2.39-5.9 2.12-12.26 1.53-18.47 3.68-1.17 7.54-1.53 11.37-1.98 1.61 0.83 3.23 1.68 4.85 2.53 3.91 4.1 2.1 10.33 0.57 15.1zm1.88 0.74c0.39-3.39 0.86-6.78 1.77-10.07 1.44 1.53 3.08 2.9 4.82 4.11 1.21 1.87 2.17 3.89 3.07 5.94-3.23 0.1-6.45 0.09-9.66 0.02zm21.44-0.82c-0.24-3.13 1.27-6.61-0.52-9.46-0.6 3.06-0.95 6.15-1.3 9.25-2.72-0.02-5.61-0.94-7.11-3.35-2-3.26-3.97-6.53-6.11-9.7 4.83-3.63 8.83-8.78 14.67-10.78 0.13 3.84-0.1 7.69-0.05 11.53 0.83 2.33 2.15 4.48 2.65 6.94-0.39 1.96-0.02 4.61-2.23 5.57zm8.65-24.62c-0.5 3.4-0.8 6.84-1.12 10.27-0.84-1.44-1.7-2.88-2.47-4.34 0.04-0.61 0.12-1.83 0.17-2.44 0.53-2.88 0.95-5.78 1-8.71l0.06-0.77c1.1-0.68 2.21-1.35 3.35-2.01-0.26 2.67-0.63 5.33-0.99 8zm11.95-35.97c-0.59 1.7-1.48 3.71-3.47 4.02-0.81-1.68-1.59-3.36-2.36-5.04 0.84-2.11 1.92-4.13 3.42-5.86 3.38 0.47 2.6 4.43 2.41 6.88zm14.72 20.81l-1.08 0.62c-1.06-1.09-2.89-1.7-3.28-3.24 0.97-4.07 2.06-8.12 2.54-12.29-0.59 0.07-1.77 0.22-2.36 0.29-1.3 3.43-0.5 7.34-2.65 10.51-0.55-4.15-2.08-8.6-0.15-12.63 0.79-1.89 1.65-3.88 0.83-5.93 0.7-0.82 1.43-1.63 2.22-2.39 3.09 4.45 4.85 9.64 6.11 14.88 0.75 3.53-0.91 6.97-2.18 10.18zm7.55-2.56c-0.61-1.69-1.59-3.4-1.15-5.25 1.46-2.39 3.21-4.7 5.57-6.3-0.78 3.94-0.93 8.97-4.42 11.55zm16.53-5.72c-1.26-1.78-3.6-1.91-5.5-2.43 3.18 1.2 4.74 4.05 5.45 7.24l-1.2-0.37c-1.99-1.32-3.94-3.62-6.57-2.53-0.28-1.12-0.73-2.36-0.06-3.43 1.91-3.09 4.74-5.47 6.75-8.5-3.38 2.1-5.54 5.55-8.55 8.08 0.35-2.58 0.68-5.16 1.09-7.73l0.71-0.79c1.45-1.63 2.98-3.18 4.53-4.72 1.89 3.2 4.63 5.74 7.53 8.03-0.04 4.14 0.2 8.28 0.91 12.38-3.2 0.15-3.56-3.25-5.09-5.23zm151.91 59.75c-3.28-1.9-7.24-0.78-10.66-1.93-3.39-2.69-6.74-5.44-9.92-8.37 3.47-0.45 6.96-0.82 10.43-1.41 3.83 3.49 6.84 7.74 10.15 11.71zm-59.18-37.59c4.37-0.93 8.83-0.06 13.25-0.01 3.77 2.01 7.33 4.41 10.87 6.83-4.69 0.46-9.4 0.7-14.1 0.8-2.87-3.12-6.68-5.1-10.02-7.62zm11.22 535.96l-1.49-0.71c-0.38-2.88-0.65-5.77-1.14-8.62 1.01-5.21 1.16-10.65 3.31-15.57-0.67 6.75-0.29 13.56 0.28 20.31 0.2 1.59-0.07 3.22-0.96 4.59zm3.19-525.64c-1.52-0.15-2.81-0.83-3.72-2.04 4.73 0.18 9.49-0.23 14.23 0.16 1.14 0.07 2.14 0.52 3.01 1.34 2.46 2.15 4.96 4.26 7.6 6.21 0.43 0.34 0.88 0.68 1.35 1.03l0.38 0.33c2.11 2.47 4.55 4.64 6.87 6.93-2.8 0.25-5.58 0.43-8.37 0.49-2.14-2.19-4.76-3.75-7.53-4.95-2.88-5.1-7.88-8.97-13.82-9.5zm255.77 3612.7c-0.61-0.86-0.52-3.24 0.97-2.35 3.48 5.19 6.12 10.87 8.6 16.61-3.66-4.43-7.31-8.95-9.57-14.26z"/>
 <path d="m1027.8 722.94c2.52-7.1 5.5-14.1 6.86-21.54 1.1-5.34 5.04-9.32 7.58-13.97 8.06-12.35 19.94-21.42 30.54-31.42-15.66 12.46-32.77 25.42-39.91 44.91-3.71 12.28-7.29 24.66-12.49 36.42-2.64 6.12-7.24 11.1-10.05 17.13-2.39 5-5.98 9.79-6.07 15.56 2.87-10.21 9.2-18.99 15.06-27.67 3.59-6.11 5.94-12.83 8.48-19.42z"/>
 <path d="m1747.4 4214.4c-0.11 0.34-0.34 1.02-0.46 1.37 2.72 0.2 5.47 0.22 8.23 0.15-0.16-0.39-0.48-1.17-0.63-1.56-2.39-0.2-4.78-0.21-7.14 0.04z"/>
</svg>
